<svg width="103.4938154220581" height="40.927730560302734" xmlns="http://www.w3.org/2000/svg" version="1.1">
 <g>
  <title>Layer 1</title>
  <path id="svg_1" d="m7.91699,11.05761q0,-0.64258 0.15723,-0.93652t0.45117,-0.41016t0.71094,-0.08887t0.97754,0.02735q1.42187,0 2.87109,0.4375t2.61133,1.27832t1.87305,2.07129t0.71094,2.83008q0,1.0664 -0.30762,2.0166t-0.86817,1.77734t-1.3125,1.51074t-1.65429,1.18946q0.36914,0.36914 0.95703,1.30566t1.16211,1.99609t1.01855,2.05762t0.52637,1.50391l-0.16406,0.24609q-0.36914,0.21875 -0.88867,0.23242q-0.2461,0 -0.64258,-0.06152t-0.50586,-0.3623q-0.56055,-1.57227 -1.22363,-3.24024t-1.63379,-3.00781l0,-0.02735q-0.3418,0.13672 -0.67676,0.26661t-0.67676,0.23925q0.10938,1.51758 0.22559,2.98731t0.11621,2.97363q0,0.19141 -0.18457,0.30762t-0.41699,0.18457t-0.47168,0.0957t-0.38965,0.02735q-0.13672,0 -0.38965,-0.02735t-0.48535,-0.0957t-0.40332,-0.19824t-0.1709,-0.34864q0,-1.51757 -0.06836,-3.02832t-0.15039,-3.01464q-0.42383,-0.27344 -0.42383,-0.71094q0,-0.3418 0.32813,-0.46485q-0.16407,-2.88476 -0.37598,-5.75586t-0.21192,-5.7832zm2.47461,-0.42383q0.19141,2.9668 0.43067,5.86524t0.45801,5.86523q0.95703,-0.27344 1.78418,-0.95019t1.42871,-1.52442t0.93652,-1.8457t0.33496,-1.98242q0,-1.09375 -0.4375,-2.09864t-1.16211,-1.75683q-0.73828,-0.75195 -1.69531,-1.17578q-0.84766,-0.36914 -1.77734,-0.36914l-0.2461,0l-0.05469,-0.02735zm10.41346,14.31446q0,-0.7793 0.19824,-1.60645t0.62891,-1.49023t1.08691,-1.08008t1.58594,-0.41699q0.69727,0 1.46973,0.23925t1.41504,0.6836t1.04589,1.08691t0.40333,1.43555q0,0.95703 -0.34864,1.81836t-0.97754,1.53808t-1.46972,1.06641t-1.8252,0.38965q-0.80664,0 -1.4082,-0.29395t-1.00488,-0.78613t-0.60157,-1.16211t-0.19824,-1.42187zm2.00977,-0.02735q0,0.2461 0.07519,0.72461t0.22559,0.93653t0.38965,0.79296t0.58105,0.30762q0.72461,-0.08203 1.19629,-0.47168t0.76562,-0.95019t0.41016,-1.2168t0.11621,-1.24414q0,-0.75195 -0.29394,-1.25781t-0.96387,-0.82032q0,0.02735 0.02734,0.02735t0.02735,-0.02735l-0.3418,-0.08203q-0.13672,-0.05468 -0.33496,-0.12304t-0.38965,-0.30079q-0.5332,0.19141 -0.82715,0.49219t-0.44433,0.73145t-0.18457,1.03222t-0.03418,1.44922zm8.349,-0.39648q0,-1.06641 0.22559,-1.93457t0.71777,-1.46973t1.29199,-0.93652t1.94824,-0.33496q0.64258,0 1.3125,0.1709t1.14844,0.63574q0,-0.27344 0.05469,-1.12793t0.13672,-1.98926t0.1709,-2.37891t0.15722,-2.31054t0.12305,-1.79102t0.08203,-0.82031q0.13672,-0.39649 0.50586,-0.47168t0.69727,-0.0752q0.86132,0 1.05957,0.27344t0.19824,1.09375q0,2.99414 -0.2666,5.96094t-0.2666,5.96094q0,1.92773 0.07519,3.87597t0.54004,3.83496l0.15039,0.13672l0.08203,0.2461l-0.20508,0.31445q-0.51953,0.32812 -1.20312,0.32812l-0.05469,0q-0.69726,0 -1.28516,-0.32812q-0.21875,-0.13672 -0.3623,-0.81348t-0.22559,-1.49023t-0.12304,-1.56543t-0.06836,-1.06641q-0.47852,1.09375 -1.30567,1.87989t-2.08496,0.78613q-0.98437,0 -1.61328,-0.42383t-0.97754,-1.08008t-0.49218,-1.46972t-0.14356,-1.62012zm1.6543,0.08203q0,0.31445 0.07519,0.92969t0.23926,1.23047t0.45801,1.09375t0.77246,0.47851q0.64258,-0.31445 1.16211,-1.0459t0.89551,-1.61328t0.58789,-1.76367t0.21191,-1.52441q0,-0.80664 -0.58789,-1.33985t-1.4082,-0.5332q-0.2461,0 -0.49903,0.0957t-0.47168,0.21875q-0.50586,0.47852 -0.78613,0.86817t-0.42383,0.80664t-0.18457,0.92285t-0.04101,1.17578zm11.28845,2.58398q0,-0.47851 0.32813,-0.60839t0.71094,-0.12989q0.66992,0 1.13476,0.60157t0.88184,1.31933t0.82715,1.31934t0.9707,0.60156q0.42383,0 0.77246,-0.21191t0.60156,-0.53321t0.38965,-0.72461t0.13672,-0.7998q0,-1.03906 -0.41699,-2.14649t-1.06641,-2.2832t-1.37402,-2.40625t-1.36719,-2.50195t-1.06641,-2.59082t-0.42382,-2.65918q0,-2.00977 1.20312,-3.11719t3.17188,-1.10742q0.66992,0 1.35351,0.1914t1.25781,0.57422t0.93653,0.94336t0.3623,1.3125q0,0.2461 -0.3623,0.32129t-0.52637,0.0752q-0.24609,0 -0.5332,-0.06153t-0.36914,-0.33496t-0.23242,-0.6289t-0.37598,-0.66309t-0.5332,-0.5332t-0.67676,-0.22559q-0.61524,0 -1.0459,0.25293t-0.69727,0.67676t-0.39648,0.95019t-0.12988,1.08692q0,1.3125 0.45117,2.64551t1.12109,2.65234t1.45606,2.60449t1.45605,2.50196t1.1211,2.3789t0.45117,2.20117q0,0.92969 -0.4375,1.57227t-1.10742,1.0459t-1.4834,0.58789t-1.59278,0.18457q-0.83398,0 -1.70898,-0.33496t-1.57227,-0.92285t-1.14843,-1.37403t-0.45118,-1.70215zm11.73963,-11.18359q0,-0.19141 0.41016,-0.32812t0.92969,-0.22559t1.00488,-0.12988t0.66309,-0.06836q0,-0.36914 0.02734,-0.74512t0.15039,-0.66992t0.38965,-0.47168t0.74512,-0.17774q0.39648,0 0.60156,0.09571t0.4375,0.39648q0.05469,0.16406 0.05469,0.31445l0,0.45801t-0.02735,0.47168q0.50586,-0.05469 1.00488,-0.12988t1.00489,-0.0752q0.36914,0 0.50586,0.01368t0.27343,0.32812q0.10938,0.31445 -0.2666,0.47852t-0.90234,0.24609t-1.0459,0.12305t-0.62891,0.04101q-0.16406,2.35157 -0.33496,4.66211t-0.1709,4.68946q0,1.0664 0.06836,2.20117t0.38282,2.14648q0.08203,0.31445 0.27343,0.58789t0.19141,0.58789q0,0.19141 -0.15039,0.30078t-0.3623,0.18457t-0.42383,0.08887t-0.34864,0.01367q-0.86132,0 -1.3125,-0.64257t-0.64941,-1.53809t-0.21191,-1.83887t-0.01368,-1.53125q0,-1.20312 0.04786,-2.46094t0.11621,-2.48828t0.1914,-2.40625t0.28711,-2.1875q-0.47851,0.05469 -0.93652,0.12305t-0.93652,0.06836q-0.10938,0 -0.29395,-0.01367t-0.34863,-0.06836t-0.28028,-0.15039t-0.11621,-0.27344zm10.18104,8.94141q0,-0.7793 0.19824,-1.60645t0.62891,-1.49023t1.08691,-1.08008t1.58594,-0.41699q0.69726,0 1.46972,0.23925t1.41504,0.6836t1.0459,1.08691t0.40332,1.43555q0,0.95703 -0.34863,1.81836t-0.97754,1.53808t-1.46973,1.06641t-1.82519,0.38965q-0.80664,0 -1.4082,-0.29395t-1.00489,-0.78613t-0.60156,-1.16211t-0.19824,-1.42187zm2.00976,-0.02735q0,0.2461 0.0752,0.72461t0.22559,0.93653t0.38964,0.79296t0.58106,0.30762q0.72461,-0.08203 1.19629,-0.47168t0.76562,-0.95019t0.41016,-1.2168t0.11621,-1.24414q0,-0.75195 -0.29395,-1.25781t-0.96386,-0.82032q0,0.02735 0.02734,0.02735t0.02734,-0.02735l-0.34179,-0.08203q-0.13672,-0.05468 -0.33496,-0.12304t-0.38965,-0.30079q-0.5332,0.19141 -0.82715,0.49219t-0.44434,0.73145t-0.18457,1.03222t-0.03418,1.44922zm8.34901,-4.06054q0,-0.56055 0.19824,-0.94336t0.84082,-0.38282q0.24609,0 0.61523,0.0752t0.42383,0.37598q0.13672,0.80664 0.15039,1.75t0.09571,1.77734q0.31445,-0.61523 0.80664,-1.32617t1.12109,-1.3125t1.36719,-0.99805t1.5039,-0.39648q0.05469,0 0.20508,0.04101t0.28028,0.11621t0.15722,0.1709t-0.15039,0.17774q-0.05469,0.16406 -0.23242,0.19824t-0.31445,0.03418q-0.08203,0 -0.25977,-0.06836q-1.01172,0.5332 -1.72265,1.44922t-1.16211,2.03027t-0.65625,2.35156t-0.20508,2.41309q0,0.58789 -0.2666,0.71094t-0.8545,0.12304q-0.31445,0 -0.66308,-0.06836t-0.48535,-0.4375q-0.2461,-0.77929 -0.40332,-1.79101t-0.23926,-2.08496t-0.11621,-2.11231t-0.03418,-1.87304zm9.71619,4.38867q0,-0.95703 0.21191,-2.25586t0.71778,-2.46094t1.333,-1.97559t2.08497,-0.81347q1.17578,0 1.76367,0.67676t0.58789,1.82519q0,0.75195 -0.28028,1.64746t-0.7998,1.69531t-1.23047,1.33301t-1.58594,0.53321l-0.35547,-0.02735q0,0.36914 0.10938,0.99121t0.32129,1.23731t0.54687,1.08008t0.81348,0.46484q0.69727,0 1.33984,-0.56055t1.2168,-1.24414t1.06641,-1.24414t0.90234,-0.56055q0.21875,0 0.45117,0.06836t0.25977,0.38282q0,0.1914 -0.10254,0.31445t-0.18457,0.27344q-0.42383,0.72461 -0.92285,1.38086t-1.12793,1.18945t-1.37403,0.84082t-1.64746,0.30762q-1.17578,0 -1.95507,-0.417t-1.25782,-1.12109t-0.69043,-1.62695t-0.21191,-1.93457zm2.44726,-1.03906l0.38282,0.34179q0.27343,0.2461 0.54687,0.10938t0.49219,-0.49903t0.40332,-0.8955t0.32813,-1.09375t0.21191,-1.09375t0.06836,-0.88868l0,-0.46484t-0.04102,-0.49219t-0.14355,-0.38965t-0.32129,-0.19824q-0.06836,-0.01367 -0.12305,-0.01367q-0.46484,0 -0.79297,0.58789q-0.35547,0.65625 -0.57422,1.59277t-0.31445,1.9209t-0.12305,1.47657z" fill="#0a3757"/>
  <path id="svg_2" fill="#"/>
 </g>

</svg>